<svg viewBox="0 0 612 520" xmlns="http://www.w3.org/2000/svg" xmlns:xlink="http://www.w3.org/1999/xlink">
  <path fill="#FFF" d="M578.766 5.488v-.895H32.934v.895C15.272 6.702 2.094 20.754 0 37.808v358.728c0 6.898 1.795 12.712 4.79 17.95 6.894 12.136 17.07 18.268 31.14 18.268h197.013v49.695h-37.425c-9.28 0-16.467 7.218-16.467 16.48s7.187 16.48 16.468 16.48h220.666c9.28 0 16.768-7.22 16.768-16.48 0-9.263-7.486-16.48-16.768-16.48H378.76v-49.695h197.01c14.078 0 24.342-6.132 31.14-18.27 3.085-5.492 5.09-11.37 5.09-17.948V37.81c-2.095-17.056-16.167-31.108-33.234-32.322zm0 35.324v355.724c0 2.108-.896 3.002-2.996 3.002H35.93c-2.095 0-2.996-.894-2.996-3.002V37.81h545.83v3.002h.002z"/>
  <use x="422.266" y="437.396" transform="matrix(.81582 0 0 .55185 -288.135 -124.862)" xlink:href="#a"/>
  <defs>
    <svg viewBox="0 0 493.447 493.447" id="a" xmlns:xlink="http://www.w3.org/1999/xlink">
      <g fill="#FFF">
        <path d="M190.56 299.603v45.846l-110.636-.018v148.015h333.598v-118.08l-110.4.01v-75.764h.014M159.71 452.745h-50.004v-9.988l9.118-8.232c15.388-13.785 22.88-21.707 23.097-29.938 0-5.742-3.466-10.3-11.597-10.3-6.072 0-11.394 3.046-15.08 5.86l-4.67-11.832c5.322-4.022 13.56-7.274 23.11-7.274 15.946 0 24.734 9.328 24.734 22.142 0 11.818-8.57 21.26-18.783 30.373l-6.494 5.423v.222h26.575v13.552h-.007v-.007zm193.88-12.63h-6.72v-11.833h6.394c5.53-.1 12.586-2.174 12.586-8.127 0-4.208-3.473-7.365-10.422-7.365-5.75 0-11.824 2.48-14.74 4.223l-3.37-11.938c4.222-2.713 12.688-5.314 21.812-5.314 15.07 0 23.424 7.93 23.424 17.575 0 7.475-4.223 13.353-12.91 16.366v.223c8.47 1.535 15.318 7.93 15.318 17.12-.016 12.492-10.967 21.612-28.885 21.612-9.102 0-16.81-2.392-20.916-4.996l3.355-12.364c2.94 1.52 9.66 4.337 16.385 4.337 8.574 0 12.895-4.132 12.895-9.435-.01-6.94-6.95-10.083-14.205-10.083zm-101.144-46.247H236.48v-55.894h-.204l-13.463 6.41-2.712-12.39 18.66-8.665h13.686v70.538z"/>
        <circle r="29.547" cy="85.726" cx="129.74"/>
        <path d="M137.096 116.993l-7.356 7.402-7.125-7.48c-.038 0-.053 0-.076.01-2.18 1.46-5.143 2.915-8.474 4.222l17.92 30.232h1.702l-3.63-6.147 14.746-25.125c-2.473-1.327-5.04-2.466-7.708-3.115z"/>
        <circle r="4.06" cy="162.902" cx="129.74"/>
        <path d="M192.137 204.93c-6.642-45.194-16.603-65.41-40.23-80.832l-15.875 27.355v5.91h-1.337c1.546 1.377 2.548 3.364 2.548 5.6 0 4.146-3.376 7.512-7.512 7.512-4.146 0-7.518-3.36-7.518-7.512 0-2.232 1.002-4.223 2.548-5.6h-1.694v-5.06l-16.91-28.542c-8.27 2.25-16.862 3.145-21.108.905-6.08-3.23-10.197-10.93-12.21-22.9-1.05-6.25-6.967-10.44-13.222-9.4-6.243 1.053-10.45 6.97-9.403 13.225 3.266 19.363 11.378 32.61 24.104 39.354 5.855 3.104 12.43 4.646 19.562 4.646 1.825-.01 3.717-.168 5.62-.373v58.688c0 3.52.785 6.968 2.122 9.906l-.06 110.378c0 7.49 6.068 13.56 13.556 13.56 7.49 0 13.554-6.067 13.554-13.56l-.007-94.25 1.92.01v94.24c0 7.49 6.077 13.56 13.56 13.56 7.495 0 13.556-6.067 13.556-13.56l-.033-110.326c1.462-3.04 2.305-8.462 2.305-12.143v-37.323c3.668 9.16 6.805 21.745 9.463 39.867.832 5.692 5.73 9.808 11.332 9.808.55 0 1.128-.037 1.686-.125 6.276-.91 10.603-6.744 9.684-13.017z"/>
        <path d="M134.008 153.42h-.832l-.12.08h-7.96v1.828h8.912zM363.715 85.732c16.32 0 29.545 13.23 29.545 29.552 0 16.314-13.225 29.545-29.545 29.545-16.322 0-29.545-13.23-29.545-29.546 0-16.322 13.223-29.552 29.545-29.552zM370.914 146.474c-.02-.008-.037-.008-.074-.008l-7.125 7.48-7.36-7.408c-2.673.66-5.226 1.788-7.7 3.117l14.75 25.11-3.63 6.146h1.7l17.924-30.23c-3.343-1.29-6.296-2.752-8.486-4.206zM363.707 188.395c2.23 0 4.057 1.815 4.057 4.055 0 2.234-1.824 4.053-4.057 4.053s-4.06-1.815-4.06-4.053c.006-2.24 1.828-4.055 4.06-4.055z"/>
        <path d="M433.842 121.914c-6.27-1.052-12.168 3.146-13.217 9.396-2.02 11.973-6.14 19.668-12.213 22.896-4.246 2.248-12.838 1.352-21.107-.896l-16.914 28.535v5.063h-1.728c1.55 1.374 2.553 3.367 2.553 5.598 0 4.146-3.365 7.515-7.514 7.515-4.14 0-7.505-3.364-7.505-7.514 0-2.23.988-4.224 2.545-5.598h-1.336v-5.913L341.53 153.64c-23.638 15.416-33.595 35.64-40.24 80.83-.91 6.27 3.41 12.096 9.69 13.015.557.092 1.125.127 1.688.127 5.576 0 10.488-4.097 11.332-9.813 2.645-18.115 5.79-30.696 9.465-39.857v37.32c0 3.683.637 9.24 2.104 12.28l-.04 110.19c0 7.486 6.076 13.55 13.55 13.55 7.49 0 13.565-6.063 13.565-13.55v-94.24l1.922-.005-.008 94.245c0 7.487 6.065 13.55 13.558 13.55 7.48 0 13.55-6.063 13.55-13.55l-.056-110.185c1.338-2.934 2.318-8.64 2.318-12.16v-56.624c1.898.2 3.8.365 5.645.365 7.123 0 13.693-1.55 19.56-4.66 12.722-6.738 20.833-19.98 24.1-39.355 1.043-6.232-3.15-12.152-9.393-13.2z"/>
        <path d="M368.356 183.052h-7.975l-.106-.088h-.834v1.914h8.916zM246.796 61.042c16.86 0 30.514-13.666 30.514-30.52C277.31 13.663 263.652 0 246.796 0c-16.853 0-30.517 13.663-30.518 30.52 0 16.858 13.664 30.522 30.518 30.522z"/>
        <circle r="4.835" cy="116.384" cx="247.715"/>
        <path d="M254.394 62.813l-7.605 7.652-7.357-7.732c-.042 0-.057 0-.08.02-1.648.39-5.07 2.536-9.923 4.553l20.942 35.355h2.037l-4.334-7.317 16.85-28.702c-5.132-1.812-9.157-3.493-10.532-3.827z"/>
        <path d="M321.042 37.93c-6.39-1.067-12.55 3.265-13.656 9.716-1.896 11.286-5.453 18.62-10.56 21.794-5.192 3.432-14.034 2.342-22.358.155l-19.246 33.153v7.04h-1.594c1.852 1.642 3.06 4.015 3.06 6.673 0 4.95-4.026 8.96-8.955 8.96-4.95 0-8.962-4.022-8.962-8.96 0-2.665 1.2-5.03 3.043-6.67h-2.044v-6.028L219.9 70.234c-6.042 1.166-13.23 1.26-21.286-1.354-5.11-3.17-8.666-10.512-10.565-21.79-1.085-6.456-7.207-10.797-13.655-9.714-6.456 1.09-10.8 7.2-9.714 13.655 3.104 18.545 10.13 30.952 21.42 37.985 7.078 4.39 14.863 6.014 22.81 6.014 2.21 0 4.437-.155 6.65-.387v62.06c0 3.98.452 7.213 2.092 10.472l.008 113.745c0 7.748 6.277 14.014 14.01 14.014 7.728 0 14.005-6.28 13.998-14.014l-.007-97.413 1.99.01v97.403c0 7.748 6.273 14.014 14.003 14.014 7.738 0 13.998-6.266 13.998-14.014l-.106-113.8c1.262-2.928 2.492-6.934 2.492-10.402V94.993c2.826.35 5.652.604 8.463.604 7.942 0 15.735-1.634 22.83-6.02 11.286-7.01 18.306-19.438 21.435-37.983 1.086-6.46-3.268-12.573-9.723-13.663z"/>
        <path d="M252.792 105.078h-.988l-.148.097h-9.478v2.18h10.614z"/>
      </g>
    </svg>
  </defs>
</svg>