<svg xmlns="http://www.w3.org/2000/svg" viewBox="0 0 710.173 710.173">
  <g fill="#FFF">
    <circle cx="367.026" cy="40.06" r="40.06"/>
    <path d="M216.286 53.358l97.63 100.273-.165 276.949c0 12.637 10.242 22.88 22.879 22.88s22.797-10.242 22.797-22.88l-.083-185.018h10.325v185.266l.165.165c.165 12.472 10.242 22.467 22.632 22.467 12.472 0 22.714-10.16 22.714-22.797l-.165-276.619 98.126-100.686c0-.083 0-.083.083-.165 6.608-6.608 6.608-17.263 0-23.871-6.608-6.525-17.263-6.525-23.871 0 0 0-.083.165-.165.165L426.083 93.17H303.261l-63.187-63.683-.083-.083c-6.608-6.608-17.345-6.608-23.953 0-6.608 6.608-6.608 17.345 0 23.871.165 0 .165 0 .248.083z"/>
    <circle cx="154.998" cy="135.708" r="39.977"/>
    <path d="M193.158 188.735h-80.202c-57.405.991-55.423 43.116-55.423 43.116v98.374h.083c0 .248-.083.496-.083.826 0 9.251 7.599 16.85 17.015 16.85 9.251 0 16.767-7.682 16.767-16.85v-91.848h10.572l-.083 286.613c0 12.637 10.159 22.879 22.797 22.879 12.555 0 22.797-10.159 22.797-22.879l-.165-184.853h10.242v185.101l.165.165c.165 12.39 10.242 22.466 22.714 22.466 12.472 0 22.714-10.159 22.714-22.714l-.083-287.191h10.985V330.39c0 9.334 7.516 16.85 16.932 16.85 9.251 0 16.85-7.434 16.85-16.85v-98.539c-3.714-43.859-54.594-43.116-54.594-43.116z"/>
    <circle cx="559.974" cy="160.156" r="39.977"/>
    <path d="M598.134 213.101h-80.202c-57.405 1.074-55.423 43.198-55.423 43.198V355.416c0 9.334 7.516 16.85 16.932 16.85 9.333 0 16.85-7.516 16.85-16.85 0-.248-.083-.496-.083-.743h.083v-90.94h10.572l-.165 286.613c0 12.555 10.242 22.88 22.797 22.88s22.797-10.242 22.797-22.88V365.411h10.159v185.101l.165.165c.165 12.39 10.242 22.466 22.714 22.466s22.632-10.159 22.632-22.714l-.083-287.191h10.985V354.838c0 9.251 7.516 16.85 16.85 16.85s16.932-7.599 16.932-16.85V256.3c-3.632-43.859-54.512-43.199-54.512-43.199z"/>
    <path class="podium" d="M283.85 710.173h152.64V461.885H283.85v248.288zm73.925-147.189h8.59v74.338h-9.664V572.4h-.248l-12.968 6.938-1.9-7.682 16.19-8.672z"/>
    <path class="podium" d="M481.341 710.173h152.64V586.029h-152.64v124.144zm58.892-32.461c2.891 1.9 9.499 4.708 16.519 4.708 12.968 0 16.932-8.26 16.85-14.455-.083-10.407-9.499-14.868-19.163-14.868h-5.617v-7.516h5.617c7.269 0 16.52-3.717 16.52-12.555 0-5.947-3.717-11.233-13.05-11.233-5.864 0-11.646 2.561-14.785 4.956l-2.643-7.269c3.882-2.891 11.398-5.782 19.493-5.782 14.702 0 21.228 8.673 21.228 17.758 0 7.599-4.625 14.207-13.794 17.511v.248c9.168 1.817 16.602 8.673 16.602 19.163 0 11.811-9.251 22.301-27.092 22.301-8.342 0-15.694-2.643-19.328-5.038l2.643-7.929z"/>
    <path class="podium" d="M76.283 710.173h152.64v-152.64H76.283v152.64zm52.449-40.803l7.929-7.682c18.997-18.089 27.588-27.67 27.67-38.821 0-7.516-3.717-14.537-14.785-14.537-6.773 0-12.39 3.469-15.776 6.277l-3.221-7.021c5.121-4.378 12.472-7.599 21.062-7.599 16.024 0 22.797 11.068 22.797 21.641 0 13.794-9.912 24.862-25.605 39.895l-5.947 5.451v.248h33.369v8.342h-47.411v-6.195h-.082z"/>
  </g>
</svg>